<svg height="100" width="100" fill="#391bfe" xmlns="http://www.w3.org/2000/svg"><path d="M45.1 37.2c0-4.4-1.5-8.2-4.5-10.2-.1-.1-.3-.1-.5 0-1.3.9-2.9 1.5-4.6 1.5-1.7 0-3.3-.6-4.6-1.5-.1-.1-.3-.1-.5 0-3 2-4.5 5.8-4.5 10.2.1 3 19.2 3 19.2 0z"/><circle cx="35.5" cy="20.8" r="5.7"/><path d="M81.6 2.5H18.4c-4.3 0-7.8 3.5-7.8 7.8v79.4c0 4.3 3.5 7.8 7.8 7.8h63.2c4.3 0 7.8-3.5 7.8-7.8V10.3c0-4.3-3.5-7.8-7.8-7.8zm4 87.2c0 2.2-1.8 4-4 4H18.4c-2.2 0-4-1.8-4-4V10.3c0-2.2 1.8-4 4-4h63.2c2.2 0 4 1.8 4 4v79.4z"/><path d="M73.2 48.1H26.8c-1 0-1.9.8-1.9 1.9s.8 1.9 1.9 1.9h46.3c1 0 1.9-.8 1.9-1.9s-.8-1.9-1.8-1.9zm0-15.8H53c-1 0-1.9.8-1.9 1.9s.8 1.9 1.9 1.9h20.1c1 0 1.9-.8 1.9-1.9s-.8-1.9-1.8-1.9zm0-15.8H53c-1 0-1.9.8-1.9 1.9 0 1 .8 1.9 1.9 1.9h20.1c1 0 1.9-.8 1.9-1.9 0-1.1-.8-1.9-1.8-1.9zm0 47.4H26.8c-1 0-1.9.8-1.9 1.9s.8 1.9 1.9 1.9h46.3c1 0 1.9-.8 1.9-1.9s-.8-1.9-1.8-1.9zm0 15.8H26.8c-1 0-1.9.8-1.9 1.9s.8 1.9 1.9 1.9h46.3c1 0 1.9-.8 1.9-1.9s-.8-1.9-1.8-1.9z"/></svg>