<svg xmlns="http://www.w3.org/2000/svg" viewBox="0 0 100 101"><path d="M50 5C25.1 5 5 25.1 5 50s20.1 45 45 45 45-20.1 45-45S74.9 5 50 5zm27.5 72.6c-.9-1.2-2.1-2.1-3.5-2.6-6-2-13-2-15-5-1-1.4-1.6-3.1-1.7-4.9 6-3.3 10.6-10.5 11.5-18.9.3-2.5.2-5-.3-7.5-1.6-11.2-9-17.7-18.1-17.7h-.9c-9 0-16.5 6.5-18.1 17.7-.5 2.5-.6 5-.3 7.5.9 8.4 5.5 15.6 11.5 18.9 0 1.8-.6 3.5-1.6 4.9-2 3-9 3-15 5-1.4.5-2.6 1.4-3.5 2.6-15.3-15.2-15.3-39.9-.1-55.2s39.9-15.3 55.2-.1 15.2 40-.1 55.3c.1-.1.1 0 0 0z" fill="#391bfe"/></svg>