<?xml version="1.0" encoding="utf-8"?>
<!-- Generator: Adobe Illustrator 25.0.1, SVG Export Plug-In . SVG Version: 6.00 Build 0)  -->
<svg version="1.1" id="Layer_1" xmlns="http://www.w3.org/2000/svg" xmlns:xlink="http://www.w3.org/1999/xlink" x="0px" y="0px"
	 viewBox="0 0 100 101" style="enable-background:new 0 0 100 101;" xml:space="preserve">
<path style="fill:#391bfe;" d="M50,5C25.1,5,5,25.1,5,50s20.1,45,45,45s45-20.1,45-45S74.9,5,50,5z M77.5,77.6c-0.9-1.2-2.1-2.1-3.5-2.6c-6-2-13-2-15-5
	c-1-1.4-1.6-3.1-1.7-4.9c6-3.3,10.6-10.5,11.5-18.9c0.3-2.5,0.2-5-0.3-7.5C66.9,27.5,59.5,21,50.4,21h-0.9c-9,0-16.5,6.5-18.1,17.7
	c-0.5,2.5-0.6,5-0.3,7.5c0.9,8.4,5.5,15.6,11.5,18.9c0,1.8-0.6,3.5-1.6,4.9c-2,3-9,3-15,5c-1.4,0.5-2.6,1.4-3.5,2.6
	C7.2,62.4,7.2,37.7,22.4,22.4s39.9-15.3,55.2-0.1S92.8,62.3,77.5,77.6C77.6,77.5,77.6,77.6,77.5,77.6z"/>
</svg>
