<?xml version="1.0" encoding="utf-8"?>
<!-- Generator: Adobe Illustrator 25.0.1, SVG Export Plug-In . SVG Version: 6.00 Build 0)  -->
<svg version="1.1" id="Layer_1" xmlns="http://www.w3.org/2000/svg" xmlns:xlink="http://www.w3.org/1999/xlink" x="0px" y="0px"
	 viewBox="0 0 18 18.1" style="enable-background:new 0 0 18 18.1;" xml:space="preserve">
<style type="text/css">
	.st0{fill:#391bfe;}
</style>
<g>
	<g transform="translate(-41.000000, -391.000000)">
		<path class="st0" d="M52,398c1.9,1.9,1.9,4.9,0.1,6.8l-2.8,2.8c-1.9,1.9-4.9,1.9-6.8,0l-0.1-0.1c-1.9-1.9-1.9-4.9,0-6.8l2.8-2.8
			c0,0,0.1-0.1,0.1-0.1c0,0,0,0,0,0c0.2-0.2,0.4-0.4,0.5-0.5c0.1-0.1-0.1,0.5-0.1,1.3c0,0.8,0.2,1.3,0.2,1.3
			c-0.5,0.5-1.2,1.2-2.2,2.2c-1.1,1.1-1.1,2.9,0,4l0.1,0.1c1.1,1.1,2.9,1.1,4,0l2.8-2.8c1.1-1.1,1.1-2.9,0-4
			c-0.3-0.3-0.8-0.6-1.3-0.7c-0.1-0.1,0-0.4,0.2-0.9c0.2-0.5,0.4-0.8,0.5-0.9C50.8,397.1,51.4,397.5,52,398z M57.6,392.4
			c1.9,1.9,1.9,4.9,0.1,6.8l-2.8,2.8c0,0-0.1,0.1-0.1,0.1c0,0,0,0,0,0c-0.2,0.2-0.3,0.3-0.4,0.4c-0.1,0.1-0.2,0.2-0.3,0.3
			c-0.1,0,0.2-0.6,0.2-1.4c0-0.9-0.1-1.3,0-1.5c0.5-0.5,1.1-1.1,2-2c1.1-1.1,1.1-2.9,0-4c-1.2-1.2-3-1.2-4.1-0.1l-2.8,2.8
			c-1.1,1.1-1.1,2.9,0,4l0.1,0.1c0.3,0.3,0.7,0.6,1.2,0.7c0.2,0,0.1,0.3-0.1,0.9s-0.5,0.9-0.6,0.9c-0.7-0.2-1.3-0.6-1.8-1.1
			l-0.1-0.1c-1.9-1.9-1.9-4.9,0-6.8l2.8-2.8C52.7,390.5,55.7,390.5,57.6,392.4z"/>
	</g>
</g>
</svg>
