<svg xmlns="http://www.w3.org/2000/svg" viewBox="0 0 18 18.1"><path d="M11 7c1.9 1.9 1.9 4.9.1 6.8l-2.8 2.8c-1.9 1.9-4.9 1.9-6.8 0l-.1-.1c-1.9-1.9-1.9-4.9 0-6.8l2.8-2.8.1-.1.5-.5c.1-.1-.1.5-.1 1.3s.2 1.3.2 1.3l-2.2 2.2c-1.1 1.1-1.1 2.9 0 4l.1.1c1.1 1.1 2.9 1.1 4 0l2.8-2.8c1.1-1.1 1.1-2.9 0-4-.3-.3-.8-.6-1.3-.7-.1-.1 0-.4.2-.9s.4-.8.5-.9c.8.2 1.4.6 2 1.1zm5.6-5.6c1.9 1.9 1.9 4.9.1 6.8L13.9 11l-.1.1-.4.4-.3.3c-.1 0 .2-.6.2-1.4 0-.9-.1-1.3 0-1.5l2-2c1.1-1.1 1.1-2.9 0-4-1.2-1.2-3-1.2-4.1-.1L8.4 5.6c-1.1 1.1-1.1 2.9 0 4l.1.1c.3.3.7.6 1.2.7.2 0 .1.3-.1.9s-.5.9-.6.9c-.7-.2-1.3-.6-1.8-1.1l-.1-.1c-1.9-1.9-1.9-4.9 0-6.8l2.8-2.8c1.8-1.9 4.8-1.9 6.7 0z" fill="#391bfe"/></svg>