<svg height='100px' width='100px'  fill="#391bfe" xmlns:x="http://ns.adobe.com/Extensibility/1.0/" xmlns:i="http://ns.adobe.com/AdobeIllustrator/10.0/" xmlns:graph="http://ns.adobe.com/Graphs/1.0/" xmlns="http://www.w3.org/2000/svg" xmlns:xlink="http://www.w3.org/1999/xlink" version="1.1" x="0px" y="0px" viewBox="0 0 100 100" style="enable-background:new 0 0 100 100;" xml:space="preserve"><g><g i:extraneous="self"><g><path style="fill:#391bfe;" d="M45.1,37.2c0-4.4-1.5-8.2-4.5-10.2c-0.1-0.1-0.3-0.1-0.5,0c-1.3,0.9-2.9,1.5-4.6,1.5c-1.7,0-3.3-0.6-4.6-1.5     c-0.1-0.1-0.3-0.1-0.5,0c-3,2-4.5,5.8-4.5,10.2C26,40.2,45.1,40.2,45.1,37.2z"></path><circle cx="35.5" cy="20.8" r="5.7"></circle><path style="fill:#391bfe;" d="M81.6,2.5H18.4c-4.3,0-7.8,3.5-7.8,7.8v79.4c0,4.3,3.5,7.8,7.8,7.8h63.2c4.3,0,7.8-3.5,7.8-7.8V10.3     C89.4,6,85.9,2.5,81.6,2.5z M85.6,89.7c0,2.2-1.8,4-4,4H18.4c-2.2,0-4-1.8-4-4V10.3c0-2.2,1.8-4,4-4h63.2c2.2,0,4,1.8,4,4V89.7z"></path><path d="M73.2,48.1H26.8c-1,0-1.9,0.8-1.9,1.9s0.8,1.9,1.9,1.9h46.3c1,0,1.9-0.8,1.9-1.9S74.2,48.1,73.2,48.1z"></path><path style="fill:#391bfe;" d="M73.2,32.3H53c-1,0-1.9,0.8-1.9,1.9s0.8,1.9,1.9,1.9h20.1c1,0,1.9-0.8,1.9-1.9S74.2,32.3,73.2,32.3z"></path><path d="M73.2,16.5H53c-1,0-1.9,0.8-1.9,1.9c0,1,0.8,1.9,1.9,1.9h20.1c1,0,1.9-0.8,1.9-1.9C75,17.3,74.2,16.5,73.2,16.5z"></path><path style="fill:#391bfe;" d="M73.2,63.9H26.8c-1,0-1.9,0.8-1.9,1.9s0.8,1.9,1.9,1.9h46.3c1,0,1.9-0.8,1.9-1.9S74.2,63.9,73.2,63.9z"></path><path d="M73.2,79.7H26.8c-1,0-1.9,0.8-1.9,1.9s0.8,1.9,1.9,1.9h46.3c1,0,1.9-0.8,1.9-1.9S74.2,79.7,73.2,79.7z"></path></g></g></g></svg>
