<?xml version="1.0" encoding="utf-8"?>
<!-- Generator: Adobe Illustrator 25.0.1, SVG Export Plug-In . SVG Version: 6.00 Build 0)  -->
<svg version="1.1" id="Layer_1" xmlns="http://www.w3.org/2000/svg" xmlns:xlink="http://www.w3.org/1999/xlink" x="0px" y="0px"
	 viewBox="0 0 81.5 101.4" style="enable-background:new 0 0 81.5 101.4;" xml:space="preserve">
<path style="fill:#391bfe;" d="M6,5.5v90h49v-21h21v-69H6z M21,15.5c2.8,0,5,2.2,5,5s-2.2,5-5,5s-5-2.2-5-5S18.3,15.5,21,15.5z M21,28
	c4.1,0,7.5,3.4,7.5,7.5l0,0h-15C13.5,31.4,16.9,28,21,28L21,28z M68.5,68h-55v-2.5h55V68z M68.5,58h-55v-2.5h55V58z M68.5,48h-55
	v-2.5h55V48z M68.5,35.5h-35V33h35V35.5z M68.5,25.5h-35V23h35V25.5z"/>
<polygon points="57.5,95.5 76,77 57.5,77 "/>
<path d="M38.5,36.2c-2.4-1.4-5.4-0.6-6.8,1.8h8.7C39.9,37.3,39.3,36.6,38.5,36.2z"/>
</svg>
